<svg width="276" height="83" viewBox="0 0 276 83" fill="none" xmlns="http://www.w3.org/2000/svg">
<path d="M27.5164 28.2681H12.0886V45.4285H2.14355V3.77344H12.0886V20.0794H27.5164V3.77344H37.4614V45.4285H27.5164V28.2681Z" fill="white"/>
<path d="M70.5014 11.9146H55.4535V20.3169H68.7451V28.1494H55.4535V37.3111H70.5014V45.4523H45.5322V3.77344H70.5014V11.9146Z" fill="white"/>
<path d="M103.184 38.0707H87.9695L85.596 45.4285H75.2002L89.9634 3.77344H101.451L116.191 45.4285H105.605L103.184 38.0707ZM95.5648 14.9765L90.5805 30.2381H100.62L95.5648 14.9765Z" fill="white"/>
<path d="M131.383 3.77344V37.596H144.389V45.4285H121.461V3.77344H131.383Z" fill="white"/>
<path d="M223.117 28.2681H207.666V45.4285H197.745V3.77344H207.666V20.0794H223.117V3.77344H233.039V45.4285H223.117V28.2681Z" fill="white"/>
<path d="M237.858 3.77344H249.108L257.012 21.2187L264.845 3.77344H276L261.759 31.6622V45.4285H251.838V31.6622L237.858 3.77344Z" fill="white"/>
<path d="M171.09 45.1916H162.332C160.922 45.1916 159.57 44.6315 158.573 43.6344C157.576 42.6373 157.016 41.285 157.016 39.8749V33.5376H149.397C147.98 33.5376 146.622 32.9749 145.62 31.9734C144.619 30.9719 144.056 29.6135 144.056 28.1972V16.8994C144.056 15.483 144.619 14.1246 145.62 13.1231C146.622 12.1216 147.98 11.559 149.397 11.559H152.862V17.2553H149.753V27.8175H162.807V39.4713H170.806V25.444H162.522C161.106 25.444 159.747 24.8813 158.746 23.8798C157.744 22.8783 157.182 21.5199 157.182 20.1036V5.3404C157.182 3.92404 157.744 2.56565 158.746 1.56413C159.747 0.562616 161.106 0 162.522 0H171.185C172.602 0 173.96 0.562616 174.962 1.56413C175.963 2.56565 176.526 3.92404 176.526 5.3404V11.5352H184.501C185.917 11.5352 187.276 12.0978 188.277 13.0994C189.279 14.1009 189.841 15.4593 189.841 16.8756V28.1735C189.841 29.5899 189.279 30.9481 188.277 31.9497C187.276 32.9512 185.917 33.5139 184.501 33.5139H180.822V27.8175H184.169V17.2316H170.829V5.69634H162.807V19.7475H171.114C172.531 19.7475 173.889 20.3102 174.89 21.3118C175.892 22.3133 176.455 23.6715 176.455 25.0879V39.8512C176.458 40.5554 176.321 41.2532 176.052 41.9041C175.784 42.555 175.388 43.1461 174.889 43.6429C174.39 44.1398 173.797 44.5325 173.145 44.7984C172.493 45.0643 171.795 45.1979 171.09 45.1916Z" fill="white"/>
<path d="M0 71.5314C0 78.035 4.761 82.6093 11.0156 82.6093C15.8389 82.6093 19.7597 80.0576 21.2222 75.5767H16.2123C15.1854 77.6927 13.3183 78.7196 10.9845 78.7196C7.18817 78.7196 4.48094 75.919 4.48094 71.5314C4.48094 67.1127 7.18817 64.3432 10.9845 64.3432C13.3183 64.3432 15.1854 65.3701 16.2123 67.455H21.2222C19.7597 63.0052 15.8389 60.4224 11.0156 60.4224C4.761 60.4224 0 65.0278 0 71.5314Z" fill="#66BBB7"/>
<path d="M41.9023 73.803C41.9023 68.3574 38.0126 64.9034 33.0338 64.9034C28.055 64.9034 24.1653 68.3574 24.1653 73.803C24.1653 79.2175 27.9305 82.7026 32.9093 82.7026C37.9193 82.7026 41.9023 79.2175 41.9023 73.803ZM28.584 73.803C28.584 70.3489 30.6688 68.6997 32.9715 68.6997C35.2743 68.6997 37.4214 70.3489 37.4214 73.803C37.4214 77.2259 35.212 78.9063 32.9093 78.9063C30.5755 78.9063 28.584 77.2259 28.584 73.803Z" fill="#66BBB7"/>
<path d="M69.5253 82.4226H73.8817V72.3094C73.8817 67.5484 70.9567 64.9345 66.818 64.9345C64.2975 64.9345 62.0259 66.2725 60.9057 68.2329C59.7232 66.0858 57.5139 64.9345 54.8378 64.9345C52.6906 64.9345 50.8547 65.8369 49.7656 67.2683V65.1834H45.4091V82.4226H49.7656V72.9006C49.7656 70.1622 51.2904 68.7308 53.6553 68.7308C55.958 68.7308 57.4828 70.1622 57.4828 72.9006V82.4226H61.8392V72.9006C61.8392 70.1622 63.364 68.7308 65.6978 68.7308C68.0005 68.7308 69.5253 70.1622 69.5253 72.9006V82.4226Z" fill="#66BBB7"/>
<path d="M102.443 82.4226H106.8V72.3094C106.8 67.5484 103.875 64.9345 99.7359 64.9345C97.2153 64.9345 94.9438 66.2725 93.8235 68.2329C92.6411 66.0858 90.4317 64.9345 87.7556 64.9345C85.6085 64.9345 83.7725 65.8369 82.6834 67.2683V65.1834H78.327V82.4226H82.6834V72.9006C82.6834 70.1622 84.2082 68.7308 86.5731 68.7308C88.8758 68.7308 90.4006 70.1622 90.4006 72.9006V82.4226H94.757V72.9006C94.757 70.1622 96.2818 68.7308 98.6156 68.7308C100.918 68.7308 102.443 70.1622 102.443 72.9006V82.4226Z" fill="#66BBB7"/>
<path d="M127.519 65.1834H123.132V74.6743C123.132 77.4438 121.638 78.9374 119.273 78.9374C116.97 78.9374 115.446 77.4438 115.446 74.6743V65.1834H111.089V75.2966C111.089 80.0265 113.983 82.6404 117.997 82.6404C120.144 82.6404 122.043 81.7069 123.132 80.2443V82.4226H127.519V65.1834Z" fill="#66BBB7"/>
<path d="M144.202 82.4226H148.559V72.3094C148.559 67.5484 145.696 64.9345 141.682 64.9345C139.473 64.9345 137.606 65.868 136.485 67.3305V65.1834H132.129V82.4226H136.485V72.9006C136.485 70.1311 138.01 68.6375 140.375 68.6375C142.678 68.6375 144.202 70.1311 144.202 72.9006V82.4226Z" fill="#66BBB7"/>
<path d="M153.013 82.4226H157.369V65.1834H153.013V82.4226ZM155.222 63.1297C156.747 63.1297 157.898 62.0094 157.898 60.578C157.898 59.1466 156.747 58.0264 155.222 58.0264C153.666 58.0264 152.546 59.1466 152.546 60.578C152.546 62.0094 153.666 63.1297 155.222 63.1297Z" fill="#66BBB7"/>
<path d="M162.669 77.0704C162.669 81.0223 164.879 82.4226 168.177 82.4226H170.915V78.7507H168.893C167.524 78.7507 167.057 78.2528 167.057 77.1015V68.7619H170.915V65.1834H167.057V60.9203H162.669V65.1834H160.616V68.7619H162.669V77.0704Z" fill="#66BBB7"/>
<path d="M174.36 82.4226H178.717V65.1834H174.36V82.4226ZM176.569 63.1297C178.094 63.1297 179.246 62.0094 179.246 60.578C179.246 59.1466 178.094 58.0264 176.569 58.0264C175.014 58.0264 173.893 59.1466 173.893 60.578C173.893 62.0094 175.014 63.1297 176.569 63.1297Z" fill="#66BBB7"/>
<path d="M190.738 68.4819C192.978 68.4819 194.783 69.9133 194.845 72.1849H186.661C187.004 69.8199 188.653 68.4819 190.738 68.4819ZM198.922 77.0081H194.223C193.663 78.1595 192.636 79.093 190.769 79.093C188.591 79.093 186.848 77.6616 186.63 75.1099H199.233C199.326 74.5498 199.357 73.9897 199.357 73.4296C199.357 68.2952 195.841 64.9034 190.862 64.9034C185.759 64.9034 182.212 68.3574 182.212 73.803C182.212 79.2175 185.852 82.7026 190.862 82.7026C195.125 82.7026 197.988 80.1821 198.922 77.0081Z" fill="#66BBB7"/>
<path d="M216.229 77.506C216.105 71.1891 206.551 73.1495 206.551 70.0067C206.551 69.0109 207.392 68.3574 209.01 68.3574C210.721 68.3574 211.779 69.2598 211.904 70.5979H216.073C215.825 67.1749 213.304 64.9034 209.134 64.9034C204.871 64.9034 202.319 67.2061 202.319 70.0689C202.319 76.3858 212.059 74.4254 212.059 77.506C212.059 78.5018 211.126 79.2797 209.414 79.2797C207.672 79.2797 206.458 78.2839 206.303 76.977H201.915C202.102 80.1821 205.12 82.7026 209.445 82.7026C213.646 82.7026 216.229 80.4622 216.229 77.506Z" fill="#66BBB7"/>
<path d="M242.063 60.6714V75.6078L232.199 60.6714H227.842V82.4226H232.199V67.5172L242.063 82.4226H246.419V60.6714H242.063Z" fill="#66BBB7"/>
<path d="M249.978 71.5314C249.978 78.035 254.739 82.6093 260.993 82.6093C265.817 82.6093 269.737 80.0576 271.2 75.5767H266.19C265.163 77.6927 263.296 78.7196 260.962 78.7196C257.166 78.7196 254.459 75.919 254.459 71.5314C254.459 67.1127 257.166 64.3432 260.962 64.3432C263.296 64.3432 265.163 65.3701 266.19 67.455H271.2C269.737 63.0052 265.817 60.4224 260.993 60.4224C254.739 60.4224 249.978 65.0278 249.978 71.5314Z" fill="#66BBB7"/>
</svg>
