<svg width="294" height="114" viewBox="0 0 294 114" fill="none" xmlns="http://www.w3.org/2000/svg">
<g clip-path="url(#clip0_54:818)">
<path d="M39.8745 7.53846V53.5628H28.7652V34.7166H11.3077V53.5628H0V7.53846H11.1093V25.5911H28.5668V7.53846H39.8745Z" fill="white"/>
<path d="M82.1296 37.8907H56.7369C56.9353 40.0729 57.7288 41.8583 58.9191 43.0486C60.1094 44.2389 61.6964 44.834 63.6802 44.834C66.4575 44.834 68.4413 43.6437 69.4333 41.2632H81.3361C80.7409 43.6437 79.5507 45.8259 77.9636 47.8097C76.3766 49.7935 74.3928 51.1822 72.0122 52.3725C69.6316 53.3644 66.8543 53.9595 63.8786 53.9595C60.3077 53.9595 57.1337 53.166 54.3563 51.5789C51.579 49.9919 49.3968 47.8097 47.8098 45.0324C46.2227 42.2551 45.4292 38.8826 45.4292 35.1134C45.4292 31.3441 46.2227 27.9717 47.8098 25.1943C49.3968 22.417 51.579 20.2348 54.3563 18.6478C57.1337 17.0607 60.3077 16.2672 63.8786 16.2672C67.4494 16.2672 70.6235 17.0607 73.2025 18.4494C75.9798 19.8381 78.162 22.0202 79.5507 24.7976C81.1377 27.5749 81.9312 30.749 81.9312 34.3198C82.328 35.7085 82.1296 36.7004 82.1296 37.8907ZM70.8219 31.7409C70.8219 29.7571 70.2268 28.3684 68.8381 27.1781C67.4494 25.9879 65.8624 25.3927 63.8786 25.3927C62.0932 25.3927 60.5061 25.9879 59.1175 26.9798C57.9272 27.9717 57.1337 29.5587 56.7369 31.5425H70.8219V31.7409Z" fill="white"/>
<path d="M88.0806 25.1943C89.4693 22.417 91.4531 20.2348 93.8337 18.6478C96.2142 17.0607 98.9916 16.2672 101.967 16.2672C104.546 16.2672 106.728 16.8623 108.712 17.8542C110.696 18.8462 112.085 20.2348 113.275 22.0202V17.0607H124.384V53.5627H113.275V48.4049C112.283 50.1903 110.696 51.3806 108.712 52.5708C106.728 53.5627 104.546 54.1579 101.967 54.1579C98.9916 54.1579 96.2142 53.3644 93.8337 51.7773C91.4531 50.1903 89.4693 48.0081 88.0806 45.2308C86.692 42.4534 85.8984 39.081 85.8984 35.3117C85.8984 31.3441 86.692 28.17 88.0806 25.1943ZM110.894 28.5668C109.307 26.9798 107.522 26.1862 105.141 26.1862C102.959 26.1862 100.975 26.9798 99.3883 28.5668C97.8013 30.1538 97.0078 32.336 97.0078 35.1134C97.0078 37.8907 97.8013 40.0729 99.3883 41.6599C100.975 43.247 102.761 44.0405 105.141 44.0405C107.324 44.0405 109.307 43.247 110.894 41.6599C112.481 40.0729 113.275 37.8907 113.275 35.1134C113.275 32.5344 112.481 30.1538 110.894 28.5668Z" fill="white"/>
<path d="M143.627 5.1579V53.5628H132.518V5.1579H143.627Z" fill="white"/>
<path d="M245.199 20.83C247.778 23.6073 248.968 27.3765 248.968 32.336V53.5628H237.859V33.7247C237.859 31.3441 237.263 29.3603 235.875 27.9717C234.684 26.583 232.899 25.9879 230.717 25.9879C228.535 25.9879 226.948 26.583 225.559 27.9717C224.369 29.3603 223.575 31.1458 223.575 33.7247V53.5628H212.466V5.1579H223.575V21.8219C224.765 20.2348 226.352 18.8462 228.138 18.0526C230.122 17.0607 232.304 16.664 234.684 16.664C239.247 16.664 242.62 18.0526 245.199 20.83Z" fill="white"/>
<path d="M294 17.0607L271.186 70.8219H259.085L267.417 52.1741L252.538 16.8624H265.036L273.566 39.6761L281.898 16.8624H294V17.0607Z" fill="white"/>
<path d="M197.587 14.8785H190.247V7.53846C190.247 3.37247 186.874 0 182.708 0H173.98C169.814 0 166.441 3.37247 166.441 7.53846V29.9555H183.899V46.0243C183.899 46.6194 183.303 47.2146 182.708 47.2146H173.98C173.384 47.2146 172.789 46.6194 172.789 46.0243V32.336H159.101C158.506 32.336 157.911 31.7409 157.911 31.1458V22.417C157.911 21.8219 158.506 21.2267 159.101 21.2267H164.259V14.8785H159.101C154.935 14.8785 151.562 18.251 151.562 22.417V31.1458C151.562 35.3117 154.935 38.6842 159.101 38.6842H166.441V46.0243C166.441 50.1903 169.814 53.5628 173.98 53.5628H182.708C186.874 53.5628 190.247 50.1903 190.247 46.0243V23.6073H172.789V7.53846C172.789 6.94332 173.384 6.34818 173.98 6.34818H182.708C183.303 6.34818 183.899 6.94332 183.899 7.53846V21.2267H197.587C198.182 21.2267 198.777 21.8219 198.777 22.417V31.1458C198.777 31.7409 198.182 32.336 197.587 32.336H192.627V38.6842H197.587C201.753 38.6842 205.125 35.3117 205.125 31.1458V22.417C205.125 18.251 201.753 14.8785 197.587 14.8785Z" fill="white"/>
<path d="M1.98394 79.1539C3.37261 76.7733 5.15803 74.9879 7.34022 73.5992C9.52241 72.2105 12.1014 71.6154 14.8787 71.6154C18.0528 71.6154 21.0285 72.4089 23.409 73.996C25.7896 75.583 27.575 77.9636 28.7653 80.7409H24.2026C23.409 78.9555 22.2188 77.5668 20.6317 76.5749C19.0447 75.583 17.2592 75.1862 15.0771 75.1862C13.0933 75.1862 11.1095 75.583 9.52241 76.5749C7.93536 77.5668 6.5467 78.9555 5.55479 80.7409C4.56289 82.5263 4.16613 84.7085 4.16613 87.0891C4.16613 89.4696 4.56289 91.6518 5.55479 93.4372C6.5467 95.2227 7.73698 96.6113 9.52241 97.6032C10.9111 98.5951 12.6965 99.1903 14.8787 99.1903C17.0609 99.1903 18.8463 98.7935 20.4333 97.8016C22.0204 96.8097 23.2107 95.4211 24.0042 93.6356H28.5669C27.3767 96.6113 25.7896 98.7935 23.2107 100.381C20.8301 101.968 18.0528 102.761 14.6803 102.761C11.903 102.761 9.32402 102.166 7.14184 100.777C4.95965 99.3887 3.17423 97.6032 1.78556 95.2227C0.3969 92.8421 -0.198242 90.2632 -0.198242 87.2875C-0.198242 84.3117 0.59528 81.5344 1.98394 79.1539Z" fill="#5FC8D7"/>
<path d="M34.32 83.915C35.3119 82.1296 36.7006 80.5425 38.2877 79.5506C40.0731 78.5587 41.8585 77.9636 44.0407 77.9636C46.0245 77.9636 47.8099 78.3603 49.397 79.3522C50.984 80.3441 51.9759 81.336 52.7694 82.7247V78.3603H56.737V102.166H52.7694V97.8016C51.9759 99.1903 50.7856 100.381 49.397 101.174C47.8099 102.166 46.0245 102.563 44.0407 102.563C42.0569 102.563 40.0731 101.968 38.486 100.976C36.899 99.9838 35.5103 98.3968 34.5184 96.6113C33.5265 94.6275 33.1298 92.6437 33.1298 90.0648C32.9314 87.8826 33.5265 85.7004 34.32 83.915ZM51.7775 85.502C50.984 84.1134 50.1905 83.1215 48.8018 82.5263C47.6115 81.7328 46.2229 81.5344 44.8342 81.5344C43.4455 81.5344 42.0569 81.9312 40.8666 82.5263C39.6763 83.3198 38.6844 84.3117 38.0893 85.502C37.4941 86.6923 37.0974 88.4777 37.0974 90.2632C37.0974 92.0486 37.4941 93.6356 38.0893 95.0243C38.6844 96.413 39.6763 97.4049 40.8666 98.1984C42.0569 98.9919 43.4455 99.1903 44.8342 99.1903C46.2229 99.1903 47.6115 98.7935 48.8018 98.1984C49.9921 97.4049 50.984 96.413 51.7775 95.0243C52.5711 93.6356 52.7694 92.0486 52.7694 90.2632C52.7694 88.4777 52.3727 86.8907 51.7775 85.502Z" fill="#5FC8D7"/>
<path d="M70.6234 79.3522C72.2105 78.3603 73.9959 77.9636 75.9797 77.9636C77.9635 77.9636 79.9473 78.5587 81.7327 79.5506C83.5182 80.5425 84.7085 81.9312 85.7004 83.915C86.6923 85.7004 87.089 87.8826 87.089 90.2632C87.089 92.6437 86.6923 94.8259 85.7004 96.8097C84.7085 98.7935 83.3198 100.182 81.7327 101.174C80.1457 102.166 78.1619 102.761 75.9797 102.761C73.9959 102.761 72.2105 102.364 70.6234 101.372C69.0364 100.381 67.8461 99.3887 67.0526 98V113.672H63.085V78.3603H67.0526V82.7247C67.8461 81.5344 69.0364 80.3441 70.6234 79.3522ZM81.9311 85.502C81.1376 84.1134 80.3441 83.1215 78.9554 82.5263C77.7651 81.7328 76.3765 81.5344 74.9878 81.5344C73.5991 81.5344 72.2105 81.9312 71.0202 82.5263C69.8299 83.3198 68.838 84.3117 68.0445 85.7004C67.251 87.0891 67.0526 88.6761 67.0526 90.4615C67.0526 92.247 67.4493 93.834 68.0445 95.2227C68.6396 96.6113 69.8299 97.6032 71.0202 98.3968C72.2105 99.1903 73.5991 99.3887 74.9878 99.3887C76.3765 99.3887 77.7651 98.9919 78.9554 98.3968C80.1457 97.6032 81.1376 96.6113 81.9311 95.2227C82.7246 93.834 82.923 92.247 82.923 90.4615C82.923 88.4777 82.7246 86.8907 81.9311 85.502Z" fill="#5FC8D7"/>
<path d="M113.276 91.8502H94.6279C94.8263 94.2308 95.6198 96.0162 97.0085 97.4049C98.3971 98.7935 100.183 99.3887 102.166 99.3887C103.753 99.3887 105.34 98.9919 106.332 98.1984C107.523 97.4049 108.316 96.413 108.713 95.0243H112.879C112.284 97.2065 111.093 99.1903 109.11 100.579C107.324 101.968 104.944 102.761 102.166 102.761C99.9842 102.761 98.0004 102.166 96.215 101.174C94.4295 100.182 93.0409 98.7935 92.049 96.8097C91.0571 94.8259 90.4619 92.8421 90.4619 90.2632C90.4619 87.6842 90.8587 85.7004 91.8506 83.7166C92.8425 81.9312 94.2312 80.3441 96.0166 79.3522C97.802 78.3603 99.7858 77.7652 101.968 77.7652C104.15 77.7652 106.134 78.1619 107.919 79.1538C109.705 80.1458 110.895 81.5344 111.887 83.3198C112.879 85.1053 113.276 87.0891 113.276 89.2713C113.474 90.2632 113.474 91.0567 113.276 91.8502ZM108.515 84.7085C107.919 83.7166 106.928 82.7247 105.936 82.1296C104.745 81.5344 103.555 81.336 102.166 81.336C100.183 81.336 98.5955 81.9312 97.2069 83.3198C95.8182 84.5101 95.0247 86.2955 94.8263 88.6761H109.506C109.506 87.0891 109.11 85.7004 108.515 84.7085Z" fill="#5FC8D7"/>
<path d="M146.802 71.8138V74.9879H133.907V85.3036H144.421V88.4777H133.907V102.166H129.939V71.8138H146.802Z" fill="#5FC8D7"/>
<path d="M172.591 91.8502H153.944C154.142 94.2308 154.936 96.0162 156.324 97.4049C157.713 98.7935 159.498 99.3887 161.482 99.3887C163.069 99.3887 164.656 98.9919 165.648 98.1984C166.838 97.4049 167.632 96.413 168.029 95.0243H172.195C171.6 97.2065 170.409 99.1903 168.624 100.579C166.838 101.968 164.458 102.761 161.681 102.761C159.498 102.761 157.515 102.166 155.729 101.174C153.944 100.182 152.555 98.7935 151.563 96.8097C150.571 94.8259 149.976 92.8421 149.976 90.2632C149.976 87.6842 150.373 85.7004 151.365 83.7166C152.357 81.9312 153.745 80.3441 155.531 79.3522C157.316 78.3603 159.3 77.7652 161.482 77.7652C163.664 77.7652 165.648 78.1619 167.434 79.1538C169.219 80.1458 170.409 81.5344 171.401 83.3198C172.393 85.1053 172.79 87.0891 172.79 89.2713C172.79 90.2632 172.79 91.0567 172.591 91.8502ZM167.83 84.7085C167.235 83.7166 166.243 82.7247 165.251 82.1296C164.061 81.7328 162.672 81.336 161.482 81.336C159.498 81.336 157.911 81.9312 156.523 83.3198C155.134 84.5101 154.34 86.2955 154.142 88.6761H168.822C168.822 87.0891 168.425 85.7004 167.83 84.7085Z" fill="#5FC8D7"/>
<path d="M177.947 83.915C178.939 82.1296 180.328 80.5425 181.915 79.5506C183.7 78.5587 185.486 77.9636 187.668 77.9636C189.652 77.9636 191.437 78.3603 193.024 79.3522C194.611 80.3441 195.603 81.336 196.397 82.7247V78.3603H200.364V102.166H196.397V97.8016C195.603 99.1903 194.413 100.381 193.024 101.174C191.437 102.166 189.652 102.563 187.668 102.563C185.684 102.563 183.7 101.968 182.113 100.976C180.526 99.9838 179.138 98.3968 178.146 96.6113C177.154 94.6275 176.757 92.6437 176.757 90.0648C176.559 87.8826 176.955 85.7004 177.947 83.915ZM195.206 85.502C194.413 84.1134 193.619 83.1215 192.231 82.5263C191.041 81.7328 189.652 81.5344 188.263 81.5344C186.875 81.5344 185.486 81.9312 184.296 82.5263C183.105 83.3198 182.113 84.3117 181.518 85.502C180.923 86.6923 180.526 88.4777 180.526 90.2632C180.526 92.0486 180.923 93.6356 181.518 95.0243C182.113 96.413 183.105 97.4049 184.296 98.1984C185.486 98.9919 186.875 99.1903 188.263 99.1903C189.652 99.1903 191.041 98.7935 192.231 98.1984C193.421 97.4049 194.413 96.413 195.206 95.0243C196 93.6356 196.198 92.0486 196.198 90.2632C196.198 88.4777 196 86.8907 195.206 85.502Z" fill="#5FC8D7"/>
<path d="M213.656 79.1538C214.846 78.3603 216.433 77.9636 218.218 77.9636V82.1296H217.227C212.862 82.1296 210.68 84.5101 210.68 89.2713V102.364H206.712V78.5587H210.68V82.5263C211.275 80.9393 212.267 79.9474 213.656 79.1538Z" fill="#5FC8D7"/>
</g>
<defs>
<clipPath id="clip0_54:818">
<rect width="294" height="113.672" fill="white"/>
</clipPath>
</defs>
</svg>
