<svg width="110" height="44" viewBox="0 0 110 44" fill="none" xmlns="http://www.w3.org/2000/svg">
<g clip-path="url(#clip0_403_20)">
<path d="M14.919 2.86076V20.3265H10.7625V13.1746H4.23077V20.3265H0V2.86076H4.15655V9.71153H10.6883V2.86076H14.919Z" fill="white"/>
<path d="M30.7285 14.3791H21.2278C21.3021 15.2072 21.599 15.8847 22.0443 16.3364C22.4896 16.7881 23.0834 17.014 23.8257 17.014C24.8648 17.014 25.6071 16.5623 25.9782 15.6589H30.4316C30.2089 16.5623 29.7636 17.3904 29.1698 18.1432C28.576 18.8961 27.8338 19.4231 26.9431 19.8748C26.0524 20.2512 25.0133 20.477 23.8999 20.477C22.5639 20.477 21.3763 20.1759 20.3372 19.5736C19.298 18.9714 18.4816 18.1432 17.8878 17.0893C17.294 16.0353 16.9971 14.7555 16.9971 13.3251C16.9971 11.8947 17.294 10.6149 17.8878 9.56096C18.4816 8.507 19.298 7.67888 20.3372 7.07662C21.3763 6.47435 22.5639 6.17322 23.8999 6.17322C25.2359 6.17322 26.4235 6.47435 27.3884 7.00133C28.4276 7.52832 29.244 8.35643 29.7636 9.41039C30.3574 10.4644 30.6543 11.6689 30.6543 13.024C30.8027 13.551 30.7285 13.9274 30.7285 14.3791ZM26.4977 12.0453C26.4977 11.2925 26.2751 10.7655 25.7555 10.3138C25.2359 9.86209 24.6421 9.63624 23.8999 9.63624C23.2319 9.63624 22.6381 9.86209 22.1185 10.2385C21.6732 10.6149 21.3763 11.2172 21.2278 11.97H26.4977V12.0453Z" fill="white"/>
<path d="M32.9551 9.56096C33.4747 8.507 34.2169 7.67888 35.1076 7.07662C35.9983 6.47435 37.0375 6.17322 38.1508 6.17322C39.1157 6.17322 39.9322 6.39907 40.6744 6.77548C41.4167 7.1519 41.9362 7.67888 42.3816 8.35643V6.47435H46.5381V20.3265H42.3816V18.3691C42.0105 19.0466 41.4167 19.4983 40.6744 19.95C39.9322 20.3265 39.1157 20.5523 38.1508 20.5523C37.0375 20.5523 35.9983 20.2512 35.1076 19.6489C34.2169 19.0466 33.4747 18.2185 32.9551 17.1646C32.4356 16.1106 32.1387 14.8308 32.1387 13.4004C32.1387 11.8947 32.4356 10.6902 32.9551 9.56096ZM41.4909 10.8408C40.8971 10.2385 40.2291 9.93738 39.3384 9.93738C38.5219 9.93738 37.7797 10.2385 37.1859 10.8408C36.5921 11.443 36.2952 12.2712 36.2952 13.3251C36.2952 14.3791 36.5921 15.2072 37.1859 15.8095C37.7797 16.4117 38.4477 16.7129 39.3384 16.7129C40.1549 16.7129 40.8971 16.4117 41.4909 15.8095C42.0847 15.2072 42.3816 14.3791 42.3816 13.3251C42.3816 12.3464 42.0847 11.443 41.4909 10.8408Z" fill="white"/>
<path d="M53.7386 1.95737V20.3265H49.582V1.95737H53.7386Z" fill="white"/>
<path d="M91.7411 7.90474C92.706 8.9587 93.1514 10.3891 93.1514 12.2712V20.3265H88.9948V12.7981C88.9948 11.8947 88.7721 11.1419 88.2526 10.6149C87.8072 10.0879 87.1392 9.8621 86.3228 9.8621C85.5063 9.8621 84.9125 10.0879 84.3929 10.6149C83.9476 11.1419 83.6507 11.8195 83.6507 12.7981V20.3265H79.4941V1.95737H83.6507V8.28115C84.096 7.67889 84.6898 7.15191 85.3578 6.85077C86.1001 6.47436 86.9165 6.32379 87.8072 6.32379C89.5144 6.32379 90.7762 6.85077 91.7411 7.90474Z" fill="white"/>
<path d="M110 6.47436L101.464 26.8761H96.9367L100.054 19.7995L94.4873 6.39908H99.1634L102.355 15.0566L105.472 6.39908H110V6.47436Z" fill="white"/>
<path d="M73.927 5.64624H71.1807V2.86076C71.1807 1.27981 69.9189 0 68.3602 0H65.0943C63.5356 0 62.2738 1.27981 62.2738 2.86076V11.3678H68.8056V17.4657C68.8056 17.6915 68.5829 17.9174 68.3602 17.9174H65.0943C64.8717 17.9174 64.649 17.6915 64.649 17.4657V12.2712H59.5275C59.3049 12.2712 59.0822 12.0453 59.0822 11.8195V8.507C59.0822 8.28115 59.3049 8.0553 59.5275 8.0553H61.4574V5.64624H59.5275C57.9688 5.64624 56.707 6.92605 56.707 8.507V11.8195C56.707 13.4004 57.9688 14.6802 59.5275 14.6802H62.2738V17.4657C62.2738 19.0466 63.5356 20.3265 65.0943 20.3265H68.3602C69.9189 20.3265 71.1807 19.0466 71.1807 17.4657V8.9587H64.649V2.86076C64.649 2.63491 64.8717 2.40906 65.0943 2.40906H68.3602C68.5829 2.40906 68.8056 2.63491 68.8056 2.86076V8.0553H73.927C74.1497 8.0553 74.3724 8.28115 74.3724 8.507V11.8195C74.3724 12.0453 74.1497 12.2712 73.927 12.2712H72.0714V14.6802H73.927C75.4857 14.6802 76.7475 13.4004 76.7475 11.8195V8.507C76.7475 6.92605 75.4857 5.64624 73.927 5.64624Z" fill="white"/>
<path d="M10.7625 30.7403H10.9133L10.8546 30.6013C10.4035 29.5337 9.72454 28.6132 8.81446 27.9978C7.90451 27.3825 6.77081 27.0772 5.56681 27.0772C4.51337 27.0772 3.52839 27.3062 2.69206 27.846C1.86278 28.3813 1.1834 29.0704 0.65556 29.9881C0.127386 30.9065 -0.174219 31.9776 -0.174219 33.1246C-0.174219 34.2679 0.0514868 35.2645 0.581336 36.1858C1.10917 37.1036 1.78855 37.7926 2.61784 38.3279C3.45417 38.8677 4.43914 39.0967 5.49258 39.0967C6.77079 39.0967 7.82961 38.7914 8.73873 38.1771C9.72536 37.5608 10.3305 36.7134 10.7813 35.5703L10.8352 35.4337H10.6883H8.98111H8.91575L8.88952 35.4935C8.60017 36.1538 8.16762 36.665 7.59154 37.0301C7.01819 37.3936 6.37034 37.5416 5.56681 37.5416C4.76956 37.5416 4.12249 37.3213 3.62143 36.9583L3.62181 36.9578L3.61185 36.9522C2.96439 36.5874 2.53084 36.0764 2.16598 35.4103C1.80575 34.7527 1.65871 33.943 1.65871 33.0493C1.65871 32.1556 1.80575 31.346 2.16598 30.6883C2.52854 30.0264 3.036 29.5116 3.6163 29.1438C4.18904 28.7807 4.91074 28.6323 5.64103 28.6323C6.44457 28.6323 7.09241 28.7803 7.66576 29.1438C8.24184 29.5089 8.6744 30.0201 8.96374 30.6804L8.98998 30.7403H9.05534H10.7625Z" fill="#66BBB7" stroke="#66BBB7" stroke-width="0.2"/>
<path d="M12.7529 31.7967L12.7525 31.7965L12.749 31.8046C12.4487 32.49 12.2202 33.3339 12.2952 34.183C12.2957 35.1712 12.4463 35.9387 12.8251 36.7071L12.825 36.7072L12.8271 36.7109C13.2044 37.3998 13.7346 38.0162 14.3458 38.4036C14.9552 38.7899 15.7159 39.0214 16.4776 39.0214C17.2331 39.0214 17.9203 38.8681 18.5335 38.4799C18.9677 38.2279 19.3512 37.8741 19.6434 37.4596V38.7708V38.8708H19.7434H21.2279H21.3279V38.7708V29.7368V29.6368H21.2279H19.7434H19.6434V29.7368V31.0454C19.3678 30.6508 19.0237 30.3385 18.5352 30.0288C17.9216 29.6398 17.2337 29.4863 16.4776 29.4863C15.6401 29.4863 14.9553 29.7186 14.276 30.1014L14.2759 30.1013L14.2715 30.1041C13.6604 30.4915 13.1302 31.1079 12.7529 31.7967ZM18.2029 31.4006L18.2106 31.4058L18.2191 31.4095C18.7076 31.6219 18.9906 31.9743 19.2824 32.4912C19.4993 33.0062 19.6434 33.5935 19.6434 34.2538C19.6434 34.9258 19.5693 35.5072 19.2852 36.0115C18.9977 36.5219 18.6394 36.8862 18.2081 37.1788C17.7752 37.3974 17.2732 37.5416 16.7745 37.5416C16.263 37.5416 15.7672 37.4671 15.346 37.1823C14.9117 36.8887 14.5561 36.5261 14.343 36.0217C14.1248 35.5054 13.9797 34.9164 13.9797 34.2538C13.9797 33.5883 14.126 32.9265 14.3405 32.4913C14.5527 32.061 14.9079 31.6979 15.3408 31.4042C15.7737 31.1855 16.2757 31.0414 16.7745 31.0414C17.2859 31.0414 17.7818 31.1159 18.2029 31.4006Z" fill="#66BBB7" stroke="#66BBB7" stroke-width="0.2"/>
<path d="M25.088 43.2373H25.188V43.1373V37.5278C25.4852 37.93 25.8819 38.2445 26.3705 38.5542C26.9841 38.9431 27.6719 39.0967 28.4281 39.0967C29.263 39.0967 30.0239 38.8657 30.6341 38.4789C31.2422 38.0934 31.7749 37.553 32.1548 36.7824C32.5344 36.0124 32.6846 35.1682 32.6846 34.2538C32.6846 33.3415 32.535 32.4957 32.1538 31.7986C31.7762 31.0332 31.3186 30.4896 30.6297 30.1014C29.9494 29.7181 29.1904 29.4863 28.4281 29.4863C27.6719 29.4863 26.9841 29.6398 26.3705 30.0288C25.8766 30.3419 25.4822 30.7069 25.188 31.0829V29.7368V29.6368H25.088H23.6035H23.5035V29.7368V43.1373V43.2373H23.6035H25.088ZM29.4854 31.4006L29.4931 31.4058L29.5016 31.4095C29.9917 31.6225 30.2749 31.9765 30.5677 32.4961C30.8516 33.0001 30.9259 33.5809 30.9259 34.3291C30.9259 35.0011 30.8518 35.5824 30.5677 36.0868C30.2802 36.5972 29.9219 36.9615 29.4906 37.2541C29.0577 37.4727 28.5557 37.6169 28.057 37.6169C27.5455 37.6169 27.0497 37.5424 26.6285 37.2576C26.1872 36.9592 25.7622 36.5964 25.5512 36.097C25.3331 35.5807 25.188 34.9916 25.188 34.3291C25.188 33.6572 25.2621 33.0758 25.5462 32.5714C25.8338 32.0611 26.192 31.6967 26.6233 31.4042C27.0562 31.1855 27.5582 31.0414 28.057 31.0414C28.5684 31.0414 29.0643 31.1159 29.4854 31.4006Z" fill="#66BBB7" stroke="#66BBB7" stroke-width="0.2"/>
<path d="M42.5357 34.9561H42.6141L42.6328 34.88C42.7106 34.5644 42.7103 34.2507 42.6357 33.8677C42.6346 33.0313 42.4836 32.2641 42.1039 31.5709C41.7265 30.8819 41.2694 30.3388 40.5808 29.9508C39.8942 29.5639 39.1339 29.411 38.305 29.411C37.4693 29.411 36.7103 29.6423 36.0292 30.0261C35.3409 30.414 34.8094 31.0321 34.4319 31.7214L34.4318 31.7214L34.4299 31.7253C34.0505 32.4948 33.9 33.2635 33.9 34.2538C33.9 35.2502 34.1273 36.0181 34.5041 36.7824C34.8843 37.5536 35.4182 38.0954 36.1034 38.4815C36.7845 38.8653 37.5435 39.0967 38.3792 39.0967C39.4368 39.0967 40.3493 38.7903 41.037 38.2486C41.8006 37.7057 42.2566 36.9317 42.4839 36.0866L42.5177 35.9606H42.3873H40.8286H40.7529L40.7323 36.0335C40.591 36.5352 40.3099 36.8929 39.8819 37.1823L39.8817 37.182L39.8749 37.1875C39.5283 37.4687 38.9606 37.6168 38.3792 37.6168C37.6583 37.6168 37.0179 37.3982 36.5206 36.8938C36.0407 36.4071 35.7552 35.7856 35.6685 34.9561H42.5357ZM36.5892 31.6944L36.5894 31.6946L36.5948 31.6891C37.094 31.1828 37.6614 30.9661 38.3792 30.9661C38.8868 30.9661 39.3145 31.0393 39.7408 31.2547C40.0967 31.4721 40.4546 31.8355 40.6683 32.1968C40.8686 32.5353 41.0087 33.007 41.0241 33.5516H35.7427C35.8296 32.7207 36.1153 32.1064 36.5892 31.6944Z" fill="#66BBB7" stroke="#66BBB7" stroke-width="0.2"/>
<path d="M55.0262 27.2525V27.1525H54.9262H48.6172H48.5172V27.2525V38.7708V38.8708H48.6172H50.1017H50.2017V38.7708V33.6763H54.0355H54.1355V33.5763V32.3718V32.2718H54.0355H50.2017V28.557H54.9262H55.0262V28.457V27.2525Z" fill="#66BBB7" stroke="#66BBB7" stroke-width="0.2"/>
<path d="M64.5748 34.9561H64.6532L64.6719 34.88C64.749 34.5671 64.749 34.2554 64.749 33.8848V33.8774C64.749 33.0372 64.5984 32.2668 64.2172 31.5709C63.8398 30.8819 63.3827 30.3388 62.6941 29.9508C62.0075 29.5639 61.2472 29.411 60.4183 29.411C59.5825 29.411 58.8236 29.6423 58.1425 30.0261C57.4542 30.414 56.9227 31.0321 56.5451 31.7214L56.5451 31.7214L56.5432 31.7253C56.1638 32.4948 56.0133 33.2635 56.0133 34.2538C56.0133 35.2502 56.2406 36.0181 56.6174 36.7824C56.9976 37.5536 57.5315 38.0954 58.2167 38.4815C58.8978 38.8653 59.6568 39.0967 60.4925 39.0967C61.5511 39.0967 62.4644 38.7897 63.1523 38.2471C63.8399 37.7046 64.2957 36.9318 64.5229 36.0866L64.5568 35.9606H64.4264H62.8677H62.7919L62.7714 36.0335C62.6301 36.5352 62.349 36.8929 61.921 37.1823L61.9207 37.182L61.914 37.1875C61.5674 37.4687 60.9997 37.6168 60.4183 37.6168C59.6974 37.6168 59.0569 37.3982 58.5597 36.8938C58.0798 36.4071 57.7943 35.7856 57.7075 34.9561H64.5748ZM58.6283 31.6944L58.6285 31.6946L58.6339 31.6891C59.1331 31.1828 59.7004 30.9661 60.4183 30.9661C60.8421 30.9661 61.3432 31.1091 61.7859 31.2584C62.1398 31.4763 62.4949 31.8376 62.7074 32.1968C62.9076 32.5353 63.0478 33.007 63.0632 33.5516H57.7817C57.8686 32.7207 58.1544 32.1064 58.6283 31.6944Z" fill="#66BBB7" stroke="#66BBB7" stroke-width="0.2"/>
<path d="M68.0145 30.1014L68.0145 30.1013L68.0101 30.1041C67.3989 30.4915 66.8687 31.1079 66.4914 31.7967C66.1101 32.4928 65.959 33.3395 66.0338 34.183C66.0342 35.1712 66.1849 35.9387 66.5637 36.7071L66.5636 36.7072L66.5657 36.7109C66.943 37.3998 67.4732 38.0162 68.0843 38.4036C68.6937 38.7899 69.4545 39.0214 70.2161 39.0214C70.9716 39.0214 71.6589 38.8681 72.272 38.4799C72.7063 38.2279 73.0897 37.8741 73.382 37.4596V38.7708V38.8708H73.482H74.9664H75.0664V38.7708V29.7368V29.6368H74.9664H73.482H73.382V29.7368V31.0454C73.1064 30.6508 72.7622 30.3385 72.2737 30.0288C71.6601 29.6398 70.9723 29.4863 70.2161 29.4863C69.3787 29.4863 68.6938 29.7186 68.0145 30.1014ZM71.8672 31.4006L71.8749 31.4058L71.8834 31.4095C72.3735 31.6225 72.6567 31.9765 72.9495 32.4961C73.2337 33.0005 73.3077 33.5819 73.3077 34.2538C73.3077 34.9258 73.2337 35.5072 72.9495 36.0115C72.662 36.5219 72.3037 36.8862 71.8724 37.1788C71.4395 37.3974 70.9375 37.5416 70.4388 37.5416C69.9273 37.5416 69.4315 37.4671 69.0103 37.1823C68.576 36.8887 68.2204 36.5261 68.0073 36.0217C67.7891 35.5054 67.644 34.9164 67.644 34.2538C67.644 33.5883 67.7903 32.9265 68.0049 32.4913C68.217 32.061 68.5722 31.6979 69.0051 31.4042C69.4381 31.1855 69.94 31.0414 70.4388 31.0414C70.9502 31.0414 71.4461 31.1159 71.8672 31.4006Z" fill="#66BBB7" stroke="#66BBB7" stroke-width="0.2"/>
<path d="M78.9253 30.87V29.8121V29.7121H78.8253H77.3408H77.2408V29.8121V38.8461V38.9461H77.3408H78.8253H78.9253V38.8461V33.8774C78.9253 32.9871 79.1267 32.338 79.5118 31.9118C79.8953 31.4876 80.4764 31.2672 81.2747 31.2672H81.6458H81.7458V31.1672V29.5863V29.4863H81.6458C80.9654 29.4863 80.3515 29.6392 79.8855 29.9532C79.4796 30.189 79.158 30.4724 78.9253 30.87Z" fill="#66BBB7" stroke="#66BBB7" stroke-width="0.2"/>
</g>
<defs>
<clipPath id="clip0_403_20">
<rect width="110" height="43.1373" fill="white"/>
</clipPath>
</defs>
</svg>
