<svg width="127" height="28" viewBox="0 0 127 28" fill="none" xmlns="http://www.w3.org/2000/svg">
<path fill-rule="evenodd" clip-rule="evenodd" d="M1.3969 13.9998C1.3969 17.1014 2.5155 19.9398 4.36975 22.1355L3.3788 23.1286C1.27333 20.6777 0 17.488 0 13.9998C0 10.5119 1.27333 7.32201 3.3788 4.8707L4.36975 5.86401C2.5155 8.05946 1.3969 10.8983 1.3969 13.9998Z" fill="white"/>
<path fill-rule="evenodd" clip-rule="evenodd" d="M13.9699 1.39998C17.0647 1.39998 19.8972 2.52123 22.0879 4.37919L23.079 3.38605C20.6329 1.27577 17.4502 0 13.9699 0C10.4896 0 7.30695 1.27577 4.86084 3.38605L5.85234 4.37919C8.0426 2.52123 10.8752 1.39998 13.9699 1.39998Z" fill="white"/>
<path fill-rule="evenodd" clip-rule="evenodd" d="M26.5412 13.9998C26.5412 17.1014 25.4226 19.9398 23.5684 22.1355L24.5593 23.1286C26.6648 20.6777 27.9381 17.488 27.9381 13.9998C27.9381 10.5119 26.6648 7.32201 24.5593 4.8707L23.5684 5.86401C25.4226 8.05946 26.5412 10.8983 26.5412 13.9998Z" fill="white"/>
<path fill-rule="evenodd" clip-rule="evenodd" d="M13.9699 26.5998C10.8752 26.5998 8.0426 25.4791 5.85234 23.6208L4.86084 24.6134C7.30695 26.7242 10.4896 28.0002 13.9699 28.0002C17.4502 28.0002 20.6329 26.7242 23.079 24.6134L22.0879 23.6208C19.8972 25.4791 17.0647 26.5998 13.9699 26.5998Z" fill="white"/>
<path fill-rule="evenodd" clip-rule="evenodd" d="M20.0882 5.47934L19.3867 6.69672C21.6098 8.35553 23.0496 11.009 23.0496 14.0001C23.0496 16.9908 21.6098 19.6448 19.3867 21.3032L20.0882 22.521C22.7275 20.6143 24.4465 17.5092 24.4465 14.0001C24.4465 10.4907 22.7275 7.38583 20.0882 5.47934Z" fill="white"/>
<path fill-rule="evenodd" clip-rule="evenodd" d="M13.969 23.0997C9.30885 23.0997 5.47085 19.5803 4.95098 15.0496H3.54443C4.07024 20.355 8.53665 24.4991 13.969 24.4991C15.5039 24.4991 16.96 24.1655 18.2736 23.5716L17.5717 22.3529C16.4668 22.8325 15.2492 23.0997 13.969 23.0997Z" fill="white"/>
<path fill-rule="evenodd" clip-rule="evenodd" d="M13.969 4.89995C15.2492 4.89995 16.4668 5.16696 17.5717 5.64614L18.2736 4.42802C16.96 3.83355 15.5039 3.49997 13.969 3.49997C8.53665 3.49997 4.07024 7.64393 3.54443 12.9497H4.95098C5.47085 8.41914 9.30885 4.89995 13.969 4.89995Z" fill="white"/>
<path fill-rule="evenodd" clip-rule="evenodd" d="M8.41735 14.6349C8.10825 11.9186 9.79328 9.43646 12.306 8.65456L12.1455 7.24249C8.86375 8.12759 6.63268 11.3071 7.02954 14.7937C7.42622 18.28 10.3145 20.8741 13.7105 20.9957L13.55 19.584C10.926 19.3891 8.72645 17.3508 8.41735 14.6349Z" fill="white"/>
<path fill-rule="evenodd" clip-rule="evenodd" d="M14.3871 8.41606C17.0115 8.61075 19.2106 10.6489 19.5197 13.3654C19.8288 16.0811 18.1442 18.5634 15.6311 19.3457L15.7916 20.757C19.0733 19.8721 21.3044 16.6928 20.9077 13.2066C20.5109 9.72009 17.6226 7.12579 14.2266 7.004L14.3871 8.41606Z" fill="white"/>
<path fill-rule="evenodd" clip-rule="evenodd" d="M124.795 21.3313H126.395V7.36115H124.795V21.3313Z" fill="white"/>
<path fill-rule="evenodd" clip-rule="evenodd" d="M121.354 15.817C121.189 14.2357 119.905 13.0777 118.199 13.0777C116.182 13.0777 115.209 14.5115 115.045 15.817H121.354ZM122.803 19.4743C121.519 20.9084 120.162 21.5515 118.494 21.5515C115.1 21.5515 113.284 19.0885 113.284 16.5331C113.284 13.8133 115.228 11.5336 118.218 11.5336C121.171 11.5336 123.225 13.7945 123.225 17.1769H115.045C115.302 18.8126 116.622 20.0078 118.475 20.0078C119.648 20.0078 120.694 19.4564 121.538 18.4635L122.803 19.4743Z" fill="white"/>
<path fill-rule="evenodd" clip-rule="evenodd" d="M109.8 15.817C109.634 14.2357 108.351 13.0777 106.645 13.0777C104.627 13.0777 103.655 14.5115 103.49 15.817H109.8ZM111.249 19.4743C109.965 20.9084 108.607 21.5515 106.938 21.5515C103.545 21.5515 101.729 19.0885 101.729 16.5331C101.729 13.8133 103.673 11.5336 106.663 11.5336C109.616 11.5336 111.67 13.7945 111.67 17.1769H103.49C103.747 18.8126 105.067 20.0078 106.921 20.0078C108.094 20.0078 109.139 19.4564 109.983 18.4635L111.249 19.4743Z" fill="white"/>
<path fill-rule="evenodd" clip-rule="evenodd" d="M98.4067 15.7615C98.4067 14.3276 97.8198 13.0775 96.187 13.0775C94.6467 13.0775 93.7115 14.1255 93.7115 15.945V21.3313H92.0605V7.36115H93.7115V12.876H93.7477C94.2432 12.0116 95.3067 11.5336 96.3708 11.5336C98.2229 11.5336 100.058 12.5444 100.058 15.1365V21.3313H98.4067V15.7615Z" fill="white"/>
<path fill-rule="evenodd" clip-rule="evenodd" d="M88.6895 11.7549H90.4505L86.929 21.3318H85.5721L83.0045 13.8506H82.9678L80.3996 21.3318H79.0426L75.521 11.7549H77.2815L79.6837 18.6848H79.7212L82.1059 11.7549H83.8664L86.2507 18.6848H86.2874L88.6895 11.7549Z" fill="white"/>
<path fill-rule="evenodd" clip-rule="evenodd" d="M65.9735 16.4335C65.9735 18.2886 67.0598 20.0427 69.0722 20.0427C71.1448 20.0427 72.2315 18.3687 72.2315 16.4531C72.2315 14.5578 71.0442 13.0248 69.0525 13.0248C67.1807 13.0248 65.9735 14.659 65.9735 16.4335ZM73.7611 21.3319H72.1518V19.9628H72.1108C71.2851 21.0113 70.1794 21.5349 68.8506 21.5349C66.0737 21.5349 64.3232 19.1758 64.3232 16.5542C64.3232 13.8521 66.0335 11.5326 68.8709 11.5326C70.1598 11.5326 71.3255 12.1372 72.1108 13.1458H72.1518V11.7548H73.7611V21.3319Z" fill="white"/>
<path fill-rule="evenodd" clip-rule="evenodd" d="M61.3021 21.3313H59.7018V13.2381H58.021V11.7543H59.7018V7.36115H61.3021V11.7543H62.9834V13.2381H61.3021V21.3313Z" fill="white"/>
<path fill-rule="evenodd" clip-rule="evenodd" d="M48.4155 16.4335C48.4155 18.2886 49.5022 20.0427 51.5141 20.0427C53.5871 20.0427 54.6739 18.3687 54.6739 16.4531C54.6739 14.5578 53.4861 13.0248 51.4949 13.0248C49.6227 13.0248 48.4155 14.659 48.4155 16.4335ZM56.2034 21.3319H54.5938V19.9628H54.5532C53.7275 21.0113 52.6213 21.5349 51.293 21.5349C48.5156 21.5349 46.7656 19.1758 46.7656 16.5542C46.7656 13.8521 48.4759 11.5326 51.3133 11.5326C52.6021 11.5326 53.7679 12.1372 54.5532 13.1458H54.5938V11.7548H56.2034V21.3319Z" fill="white"/>
<path fill-rule="evenodd" clip-rule="evenodd" d="M38.5058 19.6766C41.6241 19.6766 43.7875 17.287 43.7875 14.1991C43.7875 11.2211 41.4032 9.01533 38.3587 9.01533H36.1398V19.6766H38.5058ZM34.3789 7.36099H38.9646C42.3755 7.36099 45.6593 10.2838 45.6593 14.2909C45.6593 18.2799 42.486 21.3311 38.5241 21.3311H34.3789V7.36099Z" fill="white"/>
</svg>
