<svg width="111" height="24" viewBox="0 0 111 24" fill="none" xmlns="http://www.w3.org/2000/svg">
<path d="M43.9414 13.6957H45.0746V18.2381H50.8729V13.6957H52.0007V23.9917H50.8729V19.3229H45.0746V23.9917H43.9414V13.6957Z" fill="white"/>
<path d="M91.874 13.6957H93.0099V18.2381H98.8001V13.6957H99.9361V23.9917H98.8001V19.3229H93.0099V23.9917H91.874V13.6957Z" fill="white"/>
<path d="M54.5752 13.6957H61.8305V14.7421H55.7057V18.2299H61.1883V19.2817H55.7111V22.9316H61.9168V23.9834H54.5752V13.6957Z" fill="white"/>
<path d="M68.0065 13.6957H69.0641L73.651 23.9917H72.4341L71.2577 21.2893H65.7805L64.5906 23.9917H63.4277L68.0065 13.6957ZM70.8044 20.2539L68.5191 15.0359L66.223 20.2539H70.8044Z" fill="white"/>
<path d="M75.4043 13.6957H76.5375V22.9233H82.2036V23.9917H75.4043V13.6957Z" fill="white"/>
<path d="M85.234 14.764H81.8613V13.6957H89.7507V14.764H86.3807V23.9917H85.234V14.764Z" fill="white"/>
<path d="M54.8184 5.34433V5.31687C54.8184 2.38105 57.1415 0 60.2389 0C63.3364 0 65.6352 2.35359 65.6352 5.28666V5.31687C65.6352 8.24994 63.3094 10.6282 60.2119 10.6282C57.1145 10.6282 54.8184 8.28015 54.8184 5.34433ZM62.7941 5.34433V5.31687C62.7941 3.8421 61.7499 2.55682 60.2119 2.55682C58.674 2.55682 57.673 3.81189 57.673 5.28666V5.31687C57.673 6.78889 58.7199 8.06319 60.2389 8.06319C61.758 8.06319 62.7941 6.81911 62.7941 5.34433Z" fill="white"/>
<path d="M46.5748 4.55617L47.2062 5.52287L50.7974 10.2218C50.858 10.2928 50.9319 10.3508 51.0149 10.3923C51.0978 10.4338 51.1881 10.458 51.2803 10.4635H53.1205C53.198 10.465 53.273 10.4352 53.3291 10.3807C53.3852 10.3262 53.4178 10.2513 53.42 10.1724V0.546541C53.42 0.465692 53.3884 0.388157 53.3322 0.330988C53.2761 0.273819 53.1999 0.241704 53.1205 0.241704H50.6652V4.36118L50.7866 5.86342L50.1525 4.9434L46.707 0.461406C46.6481 0.393776 46.5764 0.338963 46.4962 0.300263C46.416 0.261562 46.3289 0.239772 46.2402 0.236206H44.2409C44.0763 0.236206 43.9414 0.337822 43.9414 0.461406V10.1532C43.9414 10.234 43.973 10.3116 44.0291 10.3687C44.0853 10.4259 44.1615 10.458 44.2409 10.458H46.6962V6.0996L46.5748 4.55617Z" fill="white"/>
<path d="M89.6261 4.55617L90.252 5.52287L93.8487 10.2218C93.9093 10.2928 93.9832 10.3508 94.0662 10.3923C94.1491 10.4338 94.2394 10.458 94.3316 10.4635H96.1717C96.21 10.4642 96.248 10.4573 96.2837 10.443C96.3193 10.4288 96.3518 10.4076 96.3794 10.3805C96.407 10.3535 96.429 10.3212 96.4443 10.2855C96.4596 10.2498 96.4678 10.2113 96.4685 10.1724V0.546541C96.4686 0.466166 96.4374 0.389042 96.3818 0.331952C96.3262 0.274861 96.2507 0.242428 96.1717 0.241704H93.7191V4.36118L93.8379 5.86342L93.2065 4.9434L89.7556 0.461406C89.6964 0.39414 89.6247 0.33957 89.5445 0.3009C89.4644 0.26223 89.3774 0.240236 89.2888 0.236206H87.2895C87.1249 0.236206 86.9873 0.337822 86.9873 0.461406V10.1532C86.988 10.2343 87.0202 10.3118 87.0768 10.3689C87.1334 10.426 87.2098 10.458 87.2895 10.458H89.7421V6.0996L89.6261 4.55617Z" fill="white"/>
<path d="M73.4623 0.244751C73.3774 0.247539 73.295 0.27484 73.2248 0.323466C73.1546 0.372092 73.0994 0.440038 73.0657 0.519383L71.5196 4.93821L70.9125 6.73705L70.3028 4.93821L68.7486 0.527621C68.7142 0.448257 68.6584 0.380392 68.5878 0.331814C68.5172 0.283236 68.4345 0.255916 68.3493 0.25299H65.6377L69.6849 10.4638H72.1132L76.182 0.244751H73.4623Z" fill="white"/>
<path d="M79.1982 0.244751L74.9082 10.4638H77.5821C77.6676 10.4594 77.7503 10.4316 77.8216 10.3832C77.8928 10.3349 77.9499 10.2678 77.9868 10.1892L78.602 8.65673H82.4198L83.0323 10.1892C83.0712 10.2679 83.1299 10.3348 83.2024 10.3831C83.2749 10.4313 83.3586 10.4592 83.4451 10.4638H86.1163L81.8262 0.244751H79.1982ZM79.4006 6.46242L80.2424 4.26537L80.5122 3.41126L80.782 4.25438L81.6266 6.45143L79.4006 6.46242Z" fill="white"/>
<path d="M101.056 10.4634H103.841V2.7215H106.555C106.594 2.7215 106.632 2.71369 106.668 2.6985C106.704 2.68332 106.737 2.66107 106.765 2.63301C106.792 2.60496 106.814 2.57167 106.829 2.53501C106.844 2.49836 106.852 2.45908 106.852 2.41941V0.241577H98.0449V2.41941C98.0449 2.45954 98.0528 2.49928 98.068 2.5363C98.0833 2.57331 98.1056 2.60686 98.1338 2.63498C98.1619 2.66311 98.1953 2.68524 98.2319 2.7001C98.2685 2.71495 98.3077 2.72223 98.3471 2.7215H101.045L101.056 10.4634Z" fill="white"/>
<path d="M21.7227 0.241695H16.116V12.9626L16.4748 15.1899L16.2967 15.2283L15.6357 13.3856L9.19794 2.85619C7.92982 0.686595 7.41448 0.241695 5.33961 0.241695H0.787855C0.578903 0.241695 0.378511 0.326177 0.230759 0.476567C0.0830078 0.626957 0 0.830931 0 1.04361V23.1899C0 23.4026 0.0830078 23.6066 0.230759 23.757C0.378511 23.9074 0.578903 23.9918 0.787855 23.9918H6.27856V10.8699L6.00875 8.97498L6.19222 8.93653L6.69947 10.2932L14.23 21.7921C15.4495 23.7776 15.9622 23.9891 17.7969 23.9891H21.7362C21.8396 23.9891 21.9421 23.9684 22.0377 23.9281C22.1333 23.8878 22.2201 23.8287 22.2933 23.7542C22.3664 23.6798 22.4245 23.5914 22.4641 23.4941C22.5037 23.3968 22.524 23.2925 22.524 23.1872V1.04361C22.524 0.937139 22.5032 0.831731 22.4628 0.733531C22.4224 0.635331 22.3631 0.546303 22.2885 0.471655C22.2139 0.397007 22.1255 0.338228 22.0283 0.298745C21.9312 0.259261 21.8273 0.239872 21.7227 0.241695Z" fill="white"/>
<path d="M29.3145 0.241577V8.44483C29.3145 8.54978 29.3348 8.65369 29.3742 8.75066C29.4137 8.84762 29.4715 8.93572 29.5444 9.00993C29.6173 9.08414 29.7039 9.14301 29.7991 9.18317C29.8944 9.22333 29.9965 9.24401 30.0996 9.24401H36.3512C36.4545 9.24437 36.5569 9.22396 36.6525 9.18396C36.7481 9.14396 36.8349 9.08515 36.9081 9.0109C36.9813 8.93666 37.0394 8.84843 37.079 8.75129C37.1186 8.65415 37.139 8.55001 37.139 8.44483V0.241577H29.3145Z" fill="white"/>
<path d="M36.3485 15.2338H30.0996C29.8911 15.2345 29.6914 15.3193 29.5443 15.4696C29.3971 15.6199 29.3145 15.8235 29.3145 16.0357V24H37.139V16.0357C37.1383 15.8227 37.0547 15.6188 36.9065 15.4685C36.7584 15.3182 36.5577 15.2338 36.3485 15.2338Z" fill="white"/>
<path d="M110.386 2.42509C110.267 2.552 110.122 2.65239 109.963 2.71997C109.803 2.78754 109.631 2.82084 109.458 2.81781C109.286 2.82108 109.115 2.78786 108.956 2.72025C108.797 2.65264 108.654 2.55212 108.535 2.42509C108.353 2.23879 108.228 2.00146 108.177 1.74309C108.127 1.48473 108.153 1.21694 108.252 0.97358C108.351 0.73022 108.519 0.522214 108.734 0.375874C108.949 0.229534 109.202 0.151428 109.461 0.151428C109.72 0.151428 109.973 0.229534 110.188 0.375874C110.403 0.522214 110.571 0.73022 110.67 0.97358C110.769 1.21694 110.795 1.48473 110.744 1.74309C110.694 2.00146 110.569 2.23879 110.386 2.42509ZM108.662 0.672934C108.555 0.779555 108.47 0.907922 108.414 1.0498C108.357 1.19167 108.331 1.34393 108.336 1.49683C108.332 1.64958 108.359 1.80151 108.415 1.94321C108.471 2.08492 108.555 2.2134 108.662 2.32072C108.767 2.42792 108.891 2.51301 109.028 2.57108C109.165 2.62916 109.311 2.65905 109.46 2.65905C109.608 2.65905 109.755 2.62916 109.891 2.57108C110.028 2.51301 110.153 2.42792 110.257 2.32072C110.364 2.2134 110.448 2.08492 110.504 1.94321C110.56 1.80151 110.587 1.64958 110.583 1.49683C110.588 1.26846 110.524 1.04405 110.402 0.852574C110.28 0.661099 110.104 0.511348 109.897 0.422657C109.69 0.333967 109.462 0.310409 109.242 0.355022C109.022 0.399635 108.82 0.510369 108.662 0.672934ZM109.434 0.74709C109.566 0.739864 109.699 0.757554 109.825 0.79927C109.897 0.828437 109.957 0.880224 109.997 0.946987C110.038 1.01375 110.056 1.09194 110.049 1.17002C110.052 1.22636 110.041 1.2826 110.017 1.33318C109.992 1.38376 109.955 1.42692 109.909 1.45839C109.845 1.49535 109.774 1.51959 109.701 1.52979C109.75 1.53441 109.797 1.54951 109.84 1.57413C109.883 1.59874 109.92 1.63231 109.949 1.6726C109.996 1.73807 110.023 1.81665 110.025 1.8978V2.0049C110.025 2.0406 110.025 2.0763 110.025 2.11475C110.026 2.14091 110.03 2.1668 110.038 2.19165V2.20812H109.801C109.801 2.20812 109.801 2.20813 109.801 2.1944C109.801 2.18066 109.801 2.1944 109.801 2.17792V2.13123V2.01589C109.81 1.95289 109.802 1.88868 109.778 1.82983C109.754 1.77097 109.716 1.71956 109.666 1.68084C109.58 1.64547 109.488 1.62953 109.396 1.63415H109.197V2.20812H108.946V0.736102L109.434 0.74709ZM109.704 0.977779C109.607 0.934626 109.502 0.915784 109.396 0.92285H109.18V1.45289H109.41C109.491 1.45699 109.572 1.44582 109.65 1.41993C109.696 1.40426 109.736 1.37339 109.764 1.33216C109.791 1.29092 109.804 1.24164 109.801 1.19199C109.807 1.15085 109.801 1.10889 109.784 1.07097C109.767 1.03305 109.741 1.00074 109.706 0.977779H109.704Z" fill="white"/>
</svg>
